#N canvas 525 55 927 514 10;
#X obj 224 42 r start;
#X obj 148 115 osc~ 300;
#X obj 148 162 *~;
#X obj 148 193 dac~ 1 2;
#X obj 224 142 line~;
#X obj 224 63 bng 15 250 50 0 empty empty empty 17 7 0 10 #fcfcfc #000000
#000000;
#X obj 292 90 del 10;
#X msg 224 112 0 \, 0.5 10;
#X msg 292 112 0.5 \, 0 200;
#X obj 141 71 del 1000;
#X obj 247 322 s floatMessage;
#X obj 247 249 metro 250;
#X obj 247 296 f;
#X obj 280 296 + 1;
#X obj 247 228 tgl 15 0 empty empty empty 17 7 0 10 #fcfcfc #000000
#000000 0 1;
#X obj 247 207 loadbang;
#X obj 48 140 osc~ 300;
#X obj 48 161 *~ 0.2;
#X obj 141 93 s bandMessage;
#X symbolatom 341 300 10 0 0 0 - - - 0;
#X obj 342 324 s symbolMessage;
#X obj 439 324 s myMessage;
#X msg 439 301 hello 0;
#X obj 516 325 s myBang;
#X msg 342 279 symbol hello;
#X obj 573 324 s myList;
#X msg 573 297 list hi hello howdy;
#X text 350 219 Test all the receive from Pd types (floats \, symbols
\, messages \, bangs and lists.);
#X connect 0 0 5 0;
#X connect 1 0 2 0;
#X connect 2 0 3 0;
#X connect 2 0 3 1;
#X connect 4 0 2 1;
#X connect 5 0 7 0;
#X connect 5 0 6 0;
#X connect 5 0 9 0;
#X connect 6 0 8 0;
#X connect 7 0 4 0;
#X connect 8 0 4 0;
#X connect 9 0 18 0;
#X connect 11 0 12 0;
#X connect 11 0 22 0;
#X connect 11 0 24 0;
#X connect 11 0 26 0;
#X connect 11 0 23 0;
#X connect 12 0 13 0;
#X connect 12 0 10 0;
#X connect 13 0 12 1;
#X connect 14 0 11 0;
#X connect 15 0 14 0;
#X connect 16 0 17 0;
#X connect 17 0 3 0;
#X connect 17 0 3 1;
#X connect 19 0 20 0;
#X connect 22 0 21 0;
#X connect 24 0 19 0;
#X connect 26 0 25 0;
