#N canvas 525 55 450 300 10;
#X obj 224 42 r start;
#X obj 148 115 osc~ 300;
#X obj 148 162 *~;
#X obj 148 193 dac~ 1 2;
#X obj 224 142 line~;
#X obj 224 63 bng 15 250 50 0 empty empty empty 17 7 0 10 -262144 -1
-1;
#X obj 147 92 s message;
#X obj 279 90 del 10;
#X obj 90 113 osc~ 250;
#X obj 90 162 *~ 0.4;
#X msg 224 112 0 \, 0.5 10;
#X msg 279 112 0.5 \, 0 200;
#X obj 147 70 del 1000;
#X obj 309 235 s floatMessage;
#X obj 309 182 metro 250;
#X obj 309 209 f;
#X obj 342 209 + 1;
#X obj 309 161 tgl 15 0 empty empty empty 17 7 0 10 -262144 -1 -1 1
1;
#X obj 309 140 loadbang;
#X connect 0 0 5 0;
#X connect 1 0 2 0;
#X connect 2 0 3 0;
#X connect 2 0 3 1;
#X connect 4 0 2 1;
#X connect 5 0 10 0;
#X connect 5 0 7 0;
#X connect 5 0 12 0;
#X connect 7 0 11 0;
#X connect 8 0 9 0;
#X connect 10 0 4 0;
#X connect 11 0 4 0;
#X connect 12 0 6 0;
#X connect 14 0 15 0;
#X connect 15 0 16 0;
#X connect 15 0 13 0;
#X connect 16 0 15 1;
#X connect 17 0 14 0;
#X connect 18 0 17 0;
