#N canvas 155 169 927 514 10;
#X obj 294 42 r start;
#X obj 218 115 osc~ 300;
#X obj 218 162 *~;
#X obj 220 257 dac~ 1 2;
#X obj 294 142 line~;
#X obj 294 63 bng 15 250 50 0 empty empty empty 17 7 0 10 #fcfcfc #000000 #000000;
#X obj 362 90 del 10;
#X msg 294 112 0 \, 0.5 10;
#X msg 362 112 0.5 \, 0 200;
#X obj 211 71 del 1000;
#X obj 317 322 s floatMessage;
#X obj 317 249 metro 250;
#X obj 317 296 f;
#X obj 350 296 + 1;
#X obj 317 228 tgl 15 0 empty empty empty 17 7 0 10 #fcfcfc #000000 #000000 0 1;
#X obj 317 207 loadbang;
#X obj 33 165 osc~ 300;
#X obj 211 93 s bandMessage;
#X symbolatom 411 300 10 0 0 0 - - - 0;
#X obj 412 324 s symbolMessage;
#X obj 509 324 s myMessage;
#X msg 509 301 hello 0;
#X obj 586 325 s myBang;
#X msg 412 279 symbol hello;
#X obj 643 324 s myList;
#X msg 643 297 list hi hello howdy;
#X text 450 226 Test all the receive from Pd types (floats \, symbols \, messages \, bangs and lists.);
#X obj 502 89 r on;
#X obj 33 40 r freq;
#X obj 33 185 *~ 0.1;
#X obj 502 131 switch~;
#X obj 502 110 tgl 16 0 empty empty empty 0 -8 0 10 #fcfcfc #000000 #000000 0 1;
#X msg 384 235 \; on 1 \;;
#X obj 33 67 random 8;
#X obj 33 95 sel 0 1 2 3 4 5 6 7;
#X msg 33 120 300;
#X msg 63 120 250;
#X msg 92 120 350;
#X msg 122 120 375;
#X msg 87 143 400;
#X msg 117 143 440;
#X msg 146 143 480;
#X msg 176 143 520;
#X msg 176 380 \; freq bang \;;
#X connect 0 0 5 0;
#X connect 1 0 2 0;
#X connect 2 0 3 0;
#X connect 2 0 3 1;
#X connect 4 0 2 1;
#X connect 5 0 7 0;
#X connect 5 0 6 0;
#X connect 5 0 9 0;
#X connect 6 0 8 0;
#X connect 7 0 4 0;
#X connect 8 0 4 0;
#X connect 9 0 17 0;
#X connect 11 0 12 0;
#X connect 11 0 21 0;
#X connect 11 0 23 0;
#X connect 11 0 25 0;
#X connect 11 0 22 0;
#X connect 12 0 13 0;
#X connect 12 0 10 0;
#X connect 13 0 12 1;
#X connect 14 0 11 0;
#X connect 15 0 14 0;
#X connect 15 0 32 0;
#X connect 16 0 29 0;
#X connect 18 0 19 0;
#X connect 21 0 20 0;
#X connect 23 0 18 0;
#X connect 25 0 24 0;
#X connect 27 0 31 0;
#X connect 28 0 33 0;
#X connect 29 0 3 0;
#X connect 29 0 3 1;
#X connect 31 0 30 0;
#X connect 33 0 34 0;
#X connect 34 0 35 0;
#X connect 34 1 36 0;
#X connect 34 2 37 0;
#X connect 34 3 38 0;
#X connect 34 4 39 0;
#X connect 34 5 40 0;
#X connect 34 6 41 0;
#X connect 34 7 42 0;
#X connect 35 0 16 0;
#X connect 36 0 16 0;
#X connect 37 0 16 0;
#X connect 38 0 16 0;
#X connect 39 0 16 0;
#X connect 40 0 16 0;
#X connect 41 0 16 0;
#X connect 42 0 16 0;
